<?xml version="1.0" encoding="utf-8"?>
<!-- Generator: Adobe Illustrator 26.0.1, SVG Export Plug-In . SVG Version: 6.00 Build 0)  -->
<svg version="1.1" id="Layer_1" xmlns="http://www.w3.org/2000/svg" xmlns:xlink="http://www.w3.org/1999/xlink" x="0px" y="0px"
	 viewBox="0 0 1920 1080" style="enable-background:new 0 0 1920 1080;" xml:space="preserve">
<style type="text/css">
	.st0{fill:#FFFFFF;}
</style>
<path class="st0" d="M278.57,597.53c63.79,0,123.4,0,186.36,0c0-14.64-0.42-28.06,0.08-41.44c1.69-45.23,27.87-80.92,67.93-92.97
	c27.01-8.12,50.84-5.88,65.59,24.48c37.03-40.31,76.05-73.67,130.14-75.65c71.84-2.64,143.82-1.48,215.73-1.44
	c5.28,0,10.71,3.92,15.77,6.58c2.13,1.12,3.44,3.75,5.2,5.62c57.81,61.55,57.81,61.55,57.89,145.68c0.01,8.48,0,16.95,0,27.93
	c57.58,0,113.51,0,170.96,0c-0.71-6.88-1.02-13.59-2.14-20.15c-14.64-86.06,44.86-161.76,131.9-165.47
	c45.31-1.93,90.77-0.87,136.14-0.07c7.5,0.13,14.94,5.8,22.31,9.15c1.44,0.66,2.26,2.55,3.57,3.64
	c40.13,33.43,55.8,74.24,52.6,128.05c-4.82,81.09-1.39,162.67-1.58,244.03c-0.01,4.93-0.94,9.86-1.78,18.06
	c-13.51,0-26.11,0.01-38.71,0c-419.58-0.36-839.17-0.81-1258.75-1.04c-103.26-0.06-154.64-41.67-163.32-145.78
	c-6.88-82.52-3.54-165.91-4.28-248.91c-0.21-23.94-0.72-48.12,2.15-71.8c7.84-64.71,63.44-114.01,128.04-114.87
	c25.65-0.34,46.43,12.81,55.92,34.58c11,25.25,20.27,53.3,21.29,80.48c2.84,75.27,1,150.71,1.01,226.09
	C278.58,579.86,278.57,587.42,278.57,597.53z M197.02,247.1c-60.58-0.09-111.87,49.82-112.93,111.96
	c-1.58,92.49-1.55,185.04-0.07,277.53c1.03,65.01,52.98,114.5,117.77,114.64c407.61,0.92,815.21,1.54,1222.82,2.26
	c11.58,0.02,23.16,0,35.97,0c0-58.15,0-112.06,0-165.98c0-53.69,0-107.38,0-162.31c-53.41,0-104.21-4.49-153.89,1.06
	c-73.52,8.21-117.9,79.09-100.28,151.05c2.56,10.46,5.58,20.8,8.7,32.33c-92.8,0-182.96,0-275.32,0c0-62.68,0-123.11,0-184.1
	c-74.01,0-145.91-2.48-217.55,0.89c-45.94,2.16-83.05,27.98-107.02,67.24c-14.48,23.73-22.67,51.27-34.07,76.93
	c-3.08,6.92-7.55,13.23-11.39,19.81c-2.61-0.92-5.22-1.84-7.82-2.75c0-37.96,0-75.93,0-115.73
	c-87.29,12.48-84.98,76.28-83.41,138.09c-95.2,0-187.24,0-281.51,0C197.02,487.93,197.02,367.49,197.02,247.1z"/>
<path class="st0" d="M1151.78,410.2c-49.11,0.25-89.92-40.81-89.41-89.97c0.5-48.21,39.92-88,88.17-89.02
	c48.86-1.03,90.02,39.55,90.31,89.04C1241.14,370.18,1201.76,409.95,1151.78,410.2z"/>
<path class="st0" d="M543.12,329.3c-0.4,37.75-31.91,68.5-69.34,67.68c-37.71-0.83-67.81-32.44-66.8-70.15
	c0.98-36.64,31.35-66.26,67.99-66.31C512.6,260.46,543.51,291.66,543.12,329.3z"/>
<path d="M197.02,247.1c0,120.4,0,240.83,0,362.92c94.26,0,186.31,0,281.51,0c-1.57-61.81-3.88-125.61,83.41-138.09
	c0,39.8,0,77.76,0,115.73c2.61,0.92,5.22,1.84,7.82,2.75c3.83-6.59,8.31-12.89,11.39-19.81c11.4-25.66,19.59-53.2,34.07-76.93
	c23.96-39.26,61.07-65.07,107.02-67.24c71.63-3.37,143.54-0.89,217.55-0.89c0,60.99,0,121.41,0,184.1c92.36,0,182.52,0,275.32,0
	c-3.11-11.53-6.14-21.87-8.7-32.33c-17.62-71.96,26.76-142.84,100.28-151.05c49.68-5.55,100.48-1.06,153.89-1.06
	c0,54.93,0,108.62,0,162.31c0,53.91,0,107.83,0,165.98c-12.82,0-24.4,0.02-35.97,0c-407.61-0.72-815.21-1.34-1222.82-2.26
	C137,751.08,85.05,701.59,84.02,636.59c-1.47-92.49-1.51-185.05,0.07-277.53C85.16,296.92,136.44,247.01,197.02,247.1z
	 M884.02,510.22c-73.24,0-144.76,0-216.36,0c3.39,58.39,50.74,101.59,109.22,101.21C834.29,611.05,882.19,566.81,884.02,510.22z
	 M1331.88,487.21c-38.59-0.39-67.07,27.65-66.79,65.76c0.26,35.83,29.25,65.74,64.78,66.86c36.24,1.14,67.71-29.28,68.16-65.88
	C1398.48,516.26,1370.07,487.59,1331.88,487.21z"/>
<path class="st0" d="M884.02,510.22c-1.83,56.59-49.73,100.83-107.14,101.21c-58.48,0.39-105.83-42.82-109.22-101.21
	C739.26,510.22,810.79,510.22,884.02,510.22z M858.73,530.04c-43.37,0-85.34,0-127.53,0c5.57,36.65,30.66,59.15,63.86,59.04
	C828.22,588.98,852.94,566.61,858.73,530.04z"/>
<path class="st0" d="M1331.88,487.21c38.19,0.38,66.6,29.05,66.15,66.74c-0.44,36.6-31.91,67.02-68.16,65.88
	c-35.54-1.12-64.52-31.03-64.78-66.86C1264.81,514.86,1293.29,486.82,1331.88,487.21z M1381.17,538.9
	c-5.34-3.55-14.55-14.43-24.78-15.48c-21.67-2.23-46.5,27.31-42.22,50.8c1.68,9.23,13.75,21.83,22.74,23.4
	C1357.88,601.26,1381.86,572.11,1381.17,538.9z"/>
<path d="M858.73,530.04c-5.79,36.57-30.51,58.94-63.67,59.04c-33.2,0.1-58.29-22.4-63.86-59.04
	C773.39,530.04,815.35,530.04,858.73,530.04z"/>
<path d="M1381.17,538.9c0.69,33.21-23.3,62.37-44.26,58.72c-8.99-1.56-21.05-14.17-22.74-23.4c-4.28-23.5,20.55-53.04,42.22-50.8
	C1366.62,524.47,1375.84,535.35,1381.17,538.9z"/>
</svg>
