<?xml version="1.0" encoding="UTF-8"?>
<svg width="700pt" height="700pt" version="1.1" viewBox="0 0 700 700" xmlns="http://www.w3.org/2000/svg" xmlns:xlink="http://www.w3.org/1999/xlink">
 <defs>
  <symbol id="v" overflow="visible">
   <path d="m1.875-0.10938c-0.09375 0.054688-0.19531 0.089844-0.29688 0.10938-0.10547 0.03125-0.21484 0.046875-0.32812 0.046875-0.34375 0-0.61719-0.09375-0.8125-0.28125-0.19922-0.19531-0.29688-0.45703-0.29688-0.78125 0-0.32031 0.097656-0.57812 0.29688-0.76562 0.19531-0.19531 0.46875-0.29688 0.8125-0.29688 0.11328 0 0.22266 0.015625 0.32812 0.046875 0.10156 0.023438 0.20312 0.058594 0.29688 0.10938v0.42188c-0.09375-0.070312-0.19531-0.11719-0.29688-0.14062-0.09375-0.03125-0.19531-0.046875-0.29688-0.046875-0.1875 0-0.33594 0.0625-0.4375 0.1875-0.10547 0.11719-0.15625 0.27734-0.15625 0.48438 0 0.21094 0.050781 0.375 0.15625 0.5 0.10156 0.11719 0.25 0.17188 0.4375 0.17188 0.10156 0 0.20312-0.015625 0.29688-0.046875 0.10156-0.03125 0.20312-0.078125 0.29688-0.14062z"/>
  </symbol>
  <symbol id="c" overflow="visible">
   <path d="m1.375-1.1094c-0.042969-0.019531-0.085938-0.035156-0.125-0.046875-0.042969-0.007812-0.089844-0.015625-0.14062-0.015625-0.125 0-0.22656 0.042969-0.29688 0.125-0.0625 0.074219-0.09375 0.1875-0.09375 0.34375v0.70312h-0.48438v-1.5312h0.48438v0.25c0.0625-0.09375 0.13281-0.16016 0.21875-0.20312 0.082031-0.050781 0.17969-0.078125 0.29688-0.078125h0.046875 0.09375z"/>
  </symbol>
  <symbol id="a" overflow="visible">
   <path d="m1.7656-0.76562v0.14062h-1.1406c0.007812 0.11719 0.046875 0.20312 0.10938 0.26562 0.070313 0.054687 0.17578 0.078125 0.3125 0.078125 0.09375 0 0.19141-0.015625 0.29688-0.046875 0.11328-0.03125 0.22656-0.078125 0.34375-0.14062v0.375c-0.11719 0.042969-0.23047 0.074219-0.34375 0.09375-0.11719 0.03125-0.23047 0.046875-0.34375 0.046875-0.28125 0-0.5-0.066406-0.65625-0.20312-0.14844-0.14453-0.21875-0.34766-0.21875-0.60938 0-0.25 0.070312-0.44141 0.21875-0.57812 0.15625-0.14453 0.36328-0.21875 0.625-0.21875 0.23828 0 0.42969 0.074219 0.57812 0.21875 0.14453 0.14844 0.21875 0.33984 0.21875 0.57812zm-0.5-0.17188c0-0.09375-0.03125-0.16406-0.09375-0.21875-0.054687-0.050781-0.12109-0.078125-0.20312-0.078125-0.09375 0-0.17188 0.027344-0.23438 0.078125-0.0625 0.054688-0.10156 0.125-0.10938 0.21875z"/>
  </symbol>
  <symbol id="j" overflow="visible">
   <path d="m0.92188-0.6875c-0.10547 0-0.18359 0.023438-0.23438 0.0625-0.054688 0.03125-0.078125 0.078125-0.078125 0.14062s0.019531 0.11719 0.0625 0.15625c0.039063 0.03125 0.097656 0.046875 0.17188 0.046875 0.09375 0 0.17188-0.03125 0.23438-0.09375 0.0625-0.070312 0.09375-0.15625 0.09375-0.25v-0.0625zm0.75-0.1875v0.875h-0.5v-0.23438c-0.0625 0.09375-0.13672 0.16797-0.21875 0.21875-0.085937 0.039062-0.18359 0.0625-0.29688 0.0625-0.15625 0-0.28906-0.046875-0.39062-0.14062-0.09375-0.09375-0.14062-0.21094-0.14062-0.35938 0-0.1875 0.054688-0.32031 0.17188-0.40625 0.125-0.082031 0.32031-0.125 0.59375-0.125h0.28125v-0.03125c0-0.082031-0.03125-0.14062-0.09375-0.17188s-0.15625-0.046875-0.28125-0.046875c-0.10547 0-0.20312 0.011719-0.29688 0.03125-0.085938 0.023437-0.16797 0.054687-0.25 0.09375v-0.375c0.10156-0.03125 0.20703-0.050781 0.3125-0.0625 0.11328-0.007813 0.22266-0.015625 0.32812-0.015625 0.26953 0 0.46875 0.058594 0.59375 0.17188 0.125 0.10547 0.1875 0.27734 0.1875 0.51562z"/>
  </symbol>
  <symbol id="b" overflow="visible">
   <path d="m0.76562-1.9688v0.4375h0.5v0.34375h-0.5v0.65625c0 0.074219 0.015625 0.125 0.046875 0.15625 0.03125 0.023438 0.085938 0.03125 0.17188 0.03125h0.25v0.34375h-0.42188c-0.19922 0-0.33984-0.035156-0.42188-0.10938-0.074219-0.082031-0.10938-0.22266-0.10938-0.42188v-0.65625h-0.25v-0.34375h0.25v-0.4375z"/>
  </symbol>
  <symbol id="i" overflow="visible">
   <path d="m1.2812-1.3125v-0.8125h0.48438v2.125h-0.48438v-0.21875c-0.074219 0.085938-0.15234 0.15234-0.23438 0.20312-0.074219 0.039062-0.16797 0.0625-0.28125 0.0625-0.1875 0-0.34375-0.070312-0.46875-0.21875-0.11719-0.15625-0.17188-0.35156-0.17188-0.59375 0-0.22656 0.054688-0.41406 0.17188-0.5625 0.125-0.15625 0.28125-0.23438 0.46875-0.23438 0.11328 0 0.20703 0.023438 0.28125 0.0625 0.082031 0.042969 0.16016 0.10547 0.23438 0.1875zm-0.32812 1c0.10156 0 0.17969-0.035156 0.23438-0.10938 0.0625-0.082031 0.09375-0.19531 0.09375-0.34375 0-0.14453-0.03125-0.25391-0.09375-0.32812-0.054688-0.082031-0.13281-0.125-0.23438-0.125-0.10547 0-0.1875 0.042969-0.25 0.125-0.054687 0.074219-0.078125 0.18359-0.078125 0.32812 0 0.14844 0.023438 0.26172 0.078125 0.34375 0.0625 0.074219 0.14453 0.10938 0.25 0.10938z"/>
  </symbol>
  <symbol id="h" overflow="visible">
   <path d="m1.0469-0.3125c0.10156 0 0.17969-0.035156 0.23438-0.10938 0.0625-0.082031 0.09375-0.19531 0.09375-0.34375 0-0.14453-0.03125-0.25391-0.09375-0.32812-0.054688-0.082031-0.13281-0.125-0.23438-0.125-0.10547 0-0.1875 0.042969-0.25 0.125-0.054687 0.074219-0.078125 0.18359-0.078125 0.32812 0 0.14844 0.023438 0.26172 0.078125 0.34375 0.0625 0.074219 0.14453 0.10938 0.25 0.10938zm-0.32812-1c0.070312-0.082031 0.14844-0.14453 0.23438-0.1875 0.082031-0.039062 0.17578-0.0625 0.28125-0.0625 0.1875 0 0.33594 0.078125 0.45312 0.23438 0.125 0.14844 0.1875 0.33594 0.1875 0.5625 0 0.24219-0.0625 0.4375-0.1875 0.59375-0.11719 0.14844-0.26562 0.21875-0.45312 0.21875-0.10547 0-0.19922-0.023438-0.28125-0.0625-0.085937-0.050781-0.16406-0.11719-0.23438-0.20312v0.21875h-0.48438v-2.125h0.48438z"/>
  </symbol>
  <symbol id="g" overflow="visible">
   <path d="m0.03125-1.5312h0.48438l0.42188 1.0469 0.34375-1.0469h0.48438l-0.64062 1.6719c-0.0625 0.17578-0.13672 0.29688-0.21875 0.35938-0.085938 0.070312-0.19922 0.10938-0.34375 0.10938h-0.28125v-0.32812h0.15625c0.082031 0 0.14062-0.015625 0.17188-0.046875 0.039063-0.023437 0.070313-0.070313 0.09375-0.14062l0.015625-0.03125z"/>
  </symbol>
  <symbol id="e" overflow="visible">
   <path d="m0.25-2.0312h0.53125v2.0312h-0.53125z"/>
  </symbol>
  <symbol id="u" overflow="visible">
   <path d="m-0.03125-2.0312h0.57812l0.46875 0.71875 0.45312-0.71875h0.57812l-0.76562 1.1719v0.85938h-0.53125v-0.85938z"/>
  </symbol>
  <symbol id="t" overflow="visible">
   <path d="m0.25-2.0312h0.53125v0.73438l0.76562-0.73438h0.60938l-0.98438 0.95312 1.0781 1.0781h-0.65625l-0.8125-0.79688v0.79688h-0.53125z"/>
  </symbol>
  <symbol id="s" overflow="visible">
   <path d="m1.1875-1.6875c-0.15625 0-0.28125 0.058594-0.375 0.17188-0.085938 0.11719-0.125 0.28125-0.125 0.5 0 0.21094 0.039062 0.375 0.125 0.5 0.09375 0.11719 0.21875 0.17188 0.375 0.17188 0.16406 0 0.28906-0.054688 0.375-0.17188 0.082031-0.125 0.125-0.28906 0.125-0.5 0-0.21875-0.042969-0.38281-0.125-0.5-0.085938-0.11328-0.21094-0.17188-0.375-0.17188zm0-0.39062c0.33203 0 0.58594 0.09375 0.76562 0.28125 0.1875 0.1875 0.28125 0.44922 0.28125 0.78125 0 0.33594-0.09375 0.59375-0.28125 0.78125-0.17969 0.1875-0.43359 0.28125-0.76562 0.28125-0.32422 0-0.57812-0.09375-0.76562-0.28125s-0.28125-0.44531-0.28125-0.78125c0-0.33203 0.09375-0.59375 0.28125-0.78125s0.44141-0.28125 0.76562-0.28125z"/>
  </symbol>
  <symbol id="f" overflow="visible">
   <path d="m0.25-2.0312h0.59375l0.73438 1.3906v-1.3906h0.5v2.0312h-0.57812l-0.75-1.4062v1.4062h-0.5z"/>
  </symbol>
  <symbol id="r" overflow="visible">
   <path d="m1.2344-2.125v0.32812h-0.26562c-0.0625 0-0.10938 0.011719-0.14062 0.03125-0.03125 0.023437-0.046875 0.0625-0.046875 0.125v0.10938h0.42188v0.34375h-0.42188v1.1875h-0.48438v-1.1875h-0.25v-0.34375h0.25v-0.10938c0-0.16406 0.046875-0.28516 0.14062-0.35938 0.09375-0.082031 0.23828-0.125 0.4375-0.125z"/>
  </symbol>
  <symbol id="d" overflow="visible">
   <path d="m0.96875-1.2188c-0.11719 0-0.20312 0.042969-0.26562 0.125-0.054687 0.074219-0.078125 0.18359-0.078125 0.32812 0 0.14844 0.023438 0.26172 0.078125 0.34375 0.0625 0.074219 0.14844 0.10938 0.26562 0.10938 0.10156 0 0.17969-0.035156 0.23438-0.10938 0.0625-0.082031 0.09375-0.19531 0.09375-0.34375 0-0.14453-0.03125-0.25391-0.09375-0.32812-0.054687-0.082031-0.13281-0.125-0.23438-0.125zm0-0.34375c0.25781 0 0.46094 0.074219 0.60938 0.21875 0.14453 0.13672 0.21875 0.32812 0.21875 0.57812s-0.074219 0.44922-0.21875 0.59375c-0.14844 0.14844-0.35156 0.21875-0.60938 0.21875-0.27344 0-0.48047-0.070312-0.625-0.21875-0.14844-0.14453-0.21875-0.34375-0.21875-0.59375s0.070312-0.44141 0.21875-0.57812c0.14453-0.14453 0.35156-0.21875 0.625-0.21875z"/>
  </symbol>
  <symbol id="q" overflow="visible">
   <path d="m1.6562-1.2812c0.0625-0.09375 0.13281-0.16016 0.21875-0.20312 0.082031-0.050781 0.17578-0.078125 0.28125-0.078125 0.17578 0 0.30469 0.058594 0.39062 0.17188 0.09375 0.10547 0.14062 0.25781 0.14062 0.45312v0.9375h-0.48438v-0.79688-0.03125-0.0625c0-0.10156-0.015625-0.17969-0.046875-0.23438-0.03125-0.050781-0.085938-0.078125-0.15625-0.078125-0.09375 0-0.16797 0.042969-0.21875 0.125-0.042969 0.074219-0.070312 0.18359-0.078125 0.32812v0.75h-0.48438v-0.79688c0-0.16406-0.015625-0.27344-0.046875-0.32812-0.03125-0.050781-0.085937-0.078125-0.15625-0.078125-0.09375 0-0.16797 0.042969-0.21875 0.125-0.054687 0.074219-0.078125 0.18359-0.078125 0.32812v0.75h-0.48438v-1.5312h0.48438v0.21875c0.0625-0.082031 0.12891-0.14453 0.20312-0.1875 0.082031-0.039062 0.17188-0.0625 0.26562-0.0625 0.10156 0 0.19531 0.027344 0.28125 0.078125 0.082031 0.054687 0.14453 0.12109 0.1875 0.20312z"/>
  </symbol>
  <symbol id="p" overflow="visible">
   <path d="m1.7656-0.9375v0.9375h-0.48438v-0.70312c0-0.13281-0.007812-0.22656-0.015625-0.28125 0-0.050781-0.011719-0.085937-0.03125-0.10938-0.011719-0.03125-0.039063-0.054688-0.078125-0.078125-0.03125-0.019531-0.070312-0.03125-0.10938-0.03125-0.09375 0-0.17188 0.042969-0.23438 0.125-0.0625 0.074219-0.09375 0.18359-0.09375 0.32812v0.75h-0.48438v-2.125h0.48438v0.8125c0.070312-0.082031 0.14844-0.14453 0.23438-0.1875 0.082031-0.039062 0.17578-0.0625 0.28125-0.0625 0.17578 0 0.30469 0.058594 0.39062 0.17188 0.09375 0.10547 0.14062 0.25781 0.14062 0.45312z"/>
  </symbol>
  <symbol id="o" overflow="visible">
   <path d="m0.21875-0.59375v-0.9375h0.48438v0.15625 0.3125 0.25 0.26562c0.007813 0.054687 0.023437 0.089844 0.046875 0.10938 0.019531 0.042969 0.046875 0.074219 0.078125 0.09375 0.03125 0.011719 0.066406 0.015625 0.10938 0.015625 0.10156 0 0.17969-0.035156 0.23438-0.10938 0.0625-0.082031 0.09375-0.19531 0.09375-0.34375v-0.75h0.48438v1.5312h-0.48438v-0.21875c-0.074219 0.085938-0.15234 0.15234-0.23438 0.20312-0.085938 0.039062-0.17188 0.0625-0.26562 0.0625-0.17969 0-0.3125-0.050781-0.40625-0.15625-0.09375-0.11328-0.14062-0.27344-0.14062-0.48438z"/>
  </symbol>
  <symbol id="n" overflow="visible">
   <path d="m1.7656-0.9375v0.9375h-0.48438v-0.71875c0-0.125-0.007812-0.21094-0.015625-0.26562 0-0.050781-0.011719-0.085937-0.03125-0.10938-0.011719-0.03125-0.039063-0.054688-0.078125-0.078125-0.03125-0.019531-0.070312-0.03125-0.10938-0.03125-0.09375 0-0.17188 0.042969-0.23438 0.125-0.0625 0.074219-0.09375 0.18359-0.09375 0.32812v0.75h-0.48438v-1.5312h0.48438v0.21875c0.070312-0.082031 0.14844-0.14453 0.23438-0.1875 0.082031-0.039062 0.17578-0.0625 0.28125-0.0625 0.17578 0 0.30469 0.058594 0.39062 0.17188 0.09375 0.10547 0.14062 0.25781 0.14062 0.45312z"/>
  </symbol>
  <symbol id="m" overflow="visible">
   <path d="m0.25-2.0312h0.875c0.25781 0 0.45703 0.058594 0.59375 0.17188 0.14453 0.11719 0.21875 0.27734 0.21875 0.48438 0 0.21875-0.074219 0.38672-0.21875 0.5-0.13672 0.11719-0.33594 0.17188-0.59375 0.17188h-0.34375v0.70312h-0.53125zm0.53125 0.375v0.5625h0.29688c0.09375 0 0.16406-0.019531 0.21875-0.0625 0.0625-0.050781 0.09375-0.125 0.09375-0.21875s-0.03125-0.16016-0.09375-0.20312c-0.054687-0.050781-0.125-0.078125-0.21875-0.078125z"/>
  </symbol>
  <symbol id="l" overflow="visible">
   <path d="m0.23438-1.5312h0.48438v1.5c0 0.20703-0.054688 0.36328-0.15625 0.46875-0.09375 0.11328-0.23047 0.17188-0.40625 0.17188h-0.25v-0.32812h0.078125c0.09375 0 0.15625-0.023438 0.1875-0.0625 0.039063-0.042969 0.0625-0.125 0.0625-0.25zm0-0.59375h0.48438v0.40625h-0.48438z"/>
  </symbol>
  <symbol id="k" overflow="visible">
   <path d="m1.4688-1.4844v0.40625c-0.0625-0.050781-0.13281-0.085937-0.20312-0.10938-0.0625-0.019531-0.13281-0.03125-0.20312-0.03125-0.13672 0-0.24609 0.042969-0.32812 0.125-0.074219 0.074219-0.10938 0.18359-0.10938 0.32812 0 0.14844 0.035156 0.26172 0.10938 0.34375 0.082031 0.074219 0.19141 0.10938 0.32812 0.10938 0.070312 0 0.14453-0.007812 0.21875-0.03125 0.070312-0.019531 0.13281-0.050781 0.1875-0.09375v0.39062c-0.074219 0.03125-0.15234 0.050781-0.23438 0.0625-0.074219 0.019531-0.15234 0.03125-0.23438 0.03125-0.27344 0-0.48438-0.070312-0.64062-0.21875-0.15625-0.14453-0.23438-0.34375-0.23438-0.59375s0.078125-0.44141 0.23438-0.57812c0.15625-0.14453 0.36719-0.21875 0.64062-0.21875 0.082031 0 0.16016 0.007812 0.23438 0.015625 0.082031 0.011719 0.16016 0.03125 0.23438 0.0625z"/>
  </symbol>
 </defs>
 <g>
  <path d="m350 512.96c-53.746-0.03125-105.83-18.641-147.43-52.672-41.598-34.035-70.148-81.402-80.82-134.08-10.672-52.676-2.8047-107.42 22.266-154.96 25.07-47.539 65.805-84.953 115.3-105.9 56.926-24.051 121.08-24.5 178.34-1.25 57.262 23.246 102.94 68.289 126.99 125.22 24.051 56.926 24.5 121.08 1.25 178.34-23.246 57.262-68.289 102.94-125.22 126.99-28.688 12.145-59.527 18.371-90.68 18.312zm0-448c-118.57 0-215.04 96.465-215.04 215.04s96.465 215.04 215.04 215.04 215.04-96.465 215.04-215.04-96.465-215.04-215.04-215.04z"/>
  <path d="m157 312.21c-12.262 0-24.309-3.1992-34.949-9.293-4.293-2.4648-5.7734-7.9414-3.3086-12.23 2.4648-4.293 7.9414-5.7734 12.234-3.3086 14.645 8.3633 32.418 9.1641 47.758 2.1523 15.336-7.0117 26.363-20.977 29.621-37.523 3.2578-16.543-1.6484-33.648-13.18-45.953-11.535-12.301-28.285-18.301-45.008-16.117-4.8672 0.57812-9.2891-2.8633-9.9336-7.7188-0.64453-4.8594 2.7344-9.332 7.582-10.043 19.285-2.5469 38.762 3.0117 53.801 15.348 15.039 12.34 24.297 30.355 25.57 49.766 1.2734 19.41-5.5508 38.48-18.852 52.676-13.297 14.195-31.883 22.25-51.336 22.246z"/>
  <path d="m560.62 312.21c-23.828 0-46.035-12.062-59.004-32.055-12.965-19.988-14.926-45.188-5.2109-66.945 9.7188-21.754 29.793-37.109 53.336-40.793 4.8867-0.76172 9.4688 2.5859 10.23 7.4766 0.76172 4.8867-2.5859 9.4688-7.4766 10.23-13.949 2.1758-26.43 9.8867-34.617 21.387-8.1875 11.504-11.391 25.82-8.875 39.715 2.5117 13.895 10.52 26.184 22.219 34.094 11.695 7.9062 26.086 10.758 39.914 7.9102 4.8516-0.98828 9.5859 2.1406 10.574 6.9883 0.98828 4.8516-2.1406 9.5859-6.9883 10.574-4.6406 0.94531-9.3633 1.418-14.102 1.418z"/>
  <path d="m381.25 189.49c-10.664 0-20.891-4.2344-28.434-11.777-7.5391-7.5391-11.773-17.766-11.773-28.43 0-10.664 4.2344-20.891 11.773-28.434 7.543-7.5391 17.77-11.773 28.434-11.773 10.664 0 20.891 4.2344 28.43 11.773 7.543 7.543 11.777 17.77 11.777 28.434-0.011719 10.66-4.25 20.879-11.789 28.418s-17.758 11.777-28.418 11.789zm0-62.496c-5.9102 0-11.582 2.3477-15.762 6.5273-4.1797 4.1797-6.5273 9.8516-6.5273 15.762s2.3477 11.578 6.5273 15.758c4.1797 4.1797 9.8516 6.5312 15.762 6.5312s11.578-2.3516 15.758-6.5312c4.1836-4.1797 6.5312-9.8477 6.5312-15.758-0.007813-5.9102-2.3594-11.574-6.5391-15.754-4.1758-4.1758-9.8398-6.5273-15.75-6.5352z"/>
  <path d="m237.75 391.6c-10.664 0-20.891-4.2344-28.434-11.777s-11.777-17.77-11.777-28.434c0-10.668 4.2344-20.895 11.777-28.438s17.77-11.777 28.434-11.777c10.668 0 20.895 4.2344 28.438 11.777 7.543 7.543 11.777 17.77 11.777 28.438-0.007813 10.66-4.25 20.883-11.789 28.422s-17.762 11.781-28.426 11.789zm0-62.5c-5.9102 0-11.582 2.3477-15.762 6.5312-4.1836 4.1797-6.5312 9.8516-6.5312 15.762 0 5.9141 2.3516 11.586 6.5312 15.766 4.1836 4.1797 9.8555 6.5273 15.766 6.5273 5.9141 0 11.586-2.3516 15.766-6.5312 4.1797-4.1836 6.5273-9.8555 6.5273-15.766-0.007813-5.9102-2.3594-11.578-6.5391-15.754-4.1797-4.1797-9.8477-6.5312-15.758-6.5352z"/>
  <path d="m288.66 504.46c-3.2656-0.007813-6.2734-1.793-7.8398-4.6602-1.5703-2.8672-1.4531-6.3594 0.30469-9.1172 3.4883-5.4805 4.4102-12.211 2.5273-18.43-1.8789-6.2148-6.3828-11.305-12.324-13.93-5.9414-2.625-12.734-2.5312-18.602 0.26562-5.8633 2.793-10.219 8.0078-11.922 14.277-1.3008 4.7773-6.2305 7.5977-11.008 6.2969-4.7773-1.3008-7.5977-6.2305-6.2969-11.008 3.0938-11.293 10.953-20.676 21.527-25.699 10.57-5.0273 22.812-5.1953 33.52-0.46094s18.82 13.902 22.219 25.102c3.4023 11.203 1.75 23.332-4.5234 33.219-1.6484 2.5898-4.5117 4.1523-7.582 4.1445z"/>
  <path d="m350 456.45c-10.664 0-20.891-4.2344-28.43-11.777-7.543-7.5391-11.777-17.766-11.777-28.43 0-10.664 4.2344-20.891 11.777-28.43 7.5391-7.543 17.766-11.777 28.43-11.777s20.891 4.2344 28.43 11.777c7.543 7.5391 11.777 17.766 11.777 28.43-0.011719 10.66-4.25 20.879-11.789 28.418-7.5391 7.5391-17.758 11.777-28.418 11.789zm0-62.496c-5.9102 0-11.582 2.3477-15.762 6.5273-4.1797 4.1836-6.5273 9.8516-6.5273 15.762 0 5.9102 2.3477 11.582 6.5273 15.762 4.1797 4.1797 9.8516 6.5273 15.762 6.5273s11.582-2.3477 15.762-6.5273c4.1797-4.1797 6.5273-9.8516 6.5273-15.762-0.007812-5.9102-2.3594-11.574-6.5391-15.75-4.1758-4.1797-9.8398-6.5312-15.75-6.5391z"/>
  <path d="m469.18 405.61c-10.668 0-20.895-4.2344-28.438-11.777-7.543-7.5391-11.781-17.77-11.781-28.438 0-10.664 4.2344-20.895 11.777-28.434 7.543-7.543 17.77-11.781 28.438-11.781 10.664 0 20.895 4.2383 28.438 11.781 7.5391 7.543 11.777 17.773 11.773 28.438-0.011719 10.66-4.25 20.883-11.789 28.418-7.5391 7.5391-17.758 11.781-28.418 11.793zm0-62.5v-0.003906c-5.9141 0-11.586 2.3477-15.766 6.5273-4.1836 4.1797-6.5312 9.8516-6.5352 15.762 0 5.9141 2.3477 11.586 6.5273 15.766 4.1836 4.1836 9.8516 6.5312 15.766 6.5352 5.9141 0 11.582-2.3516 15.766-6.5312 4.1797-4.1797 6.5312-9.8516 6.5312-15.766-0.007812-5.9102-2.3555-11.574-6.5352-15.754-4.1797-4.1797-9.8438-6.5312-15.754-6.5391z"/>
  <path d="m434.56 496.46c-1.9609 0-3.8633-0.64063-5.4258-1.8281-10.758-8.1797-16.688-21.219-15.781-34.699 0.90234-13.484 8.5195-25.613 20.273-32.281 11.754-6.668 26.074-6.9883 38.113-0.84766 12.039 6.1406 20.188 17.918 21.688 31.348 0.44531 4.8633-3.082 9.1836-7.9336 9.7227-4.8555 0.53516-9.2422-2.9102-9.8711-7.75-0.83984-7.4453-5.3633-13.969-12.039-17.367-6.6758-3.3984-14.613-3.2148-21.125 0.48438-6.5117 3.7031-10.73 10.43-11.227 17.902-0.49219 7.4766 2.8008 14.699 8.7656 19.23 3.0625 2.3281 4.293 6.3516 3.0625 9.9961-1.2305 3.6445-4.6523 6.0938-8.5 6.0898z"/>
  <path d="m350 304.47c-10.664 0-20.895-4.2344-28.438-11.777-7.543-7.5391-11.781-17.77-11.781-28.434 0-10.668 4.2344-20.898 11.777-28.438 7.543-7.543 17.773-11.781 28.438-11.781 10.668 0.003906 20.895 4.2383 28.438 11.781 7.5391 7.543 11.777 17.773 11.773 28.441-0.011719 10.66-4.25 20.879-11.789 28.418-7.5391 7.5352-17.758 11.777-28.418 11.789zm0-62.5v-0.003906c-5.9141 0-11.586 2.3477-15.766 6.5273-4.1836 4.1797-6.5312 9.8516-6.5352 15.766 0 5.9102 2.3477 11.582 6.5273 15.766 4.1836 4.1797 9.8516 6.5312 15.766 6.5312 5.9141 0 11.586-2.3477 15.766-6.5312 4.1797-4.1797 6.5312-9.8516 6.5312-15.762-0.007812-5.9102-2.3555-11.578-6.5352-15.758-4.1797-4.1797-9.8438-6.5312-15.754-6.5391z"/>
  <path d="m480.76 150.41c-11.215-0.003906-21.918-4.6875-29.527-12.926-7.6094-8.2344-11.434-19.273-10.555-30.453 0.88281-11.176 6.3945-21.48 15.199-28.422 1.8633-1.5039 4.25-2.2031 6.6328-1.9375 2.3789 0.26562 4.5547 1.4727 6.0391 3.3555 1.4805 1.8789 2.1523 4.2773 1.8555 6.6523-0.29297 2.3789-1.5312 4.5391-3.4297 6-5.4062 4.2461-8.5508 10.75-8.5234 17.629 0.03125 6.875 3.2305 13.352 8.6758 17.555 5.4453 4.1992 12.523 5.6523 19.18 3.9375 6.6602-1.7148 12.156-6.4102 14.891-12.719 1.9766-4.5352 7.2578-6.6133 11.793-4.6367 4.5391 1.9766 6.6133 7.2578 4.6367 11.793-3.125 7.1836-8.2773 13.293-14.828 17.586-6.5469 4.2969-14.211 6.582-22.039 6.5859z"/>
  <path d="m269 176.4c-10.664 0-20.891-4.2344-28.43-11.773-7.5391-7.543-11.777-17.77-11.777-28.434 0-10.664 4.2383-20.891 11.777-28.43 7.5391-7.543 17.766-11.777 28.43-11.777s20.891 4.2344 28.434 11.777c7.5391 7.5391 11.777 17.766 11.777 28.43-0.011719 10.66-4.2539 20.883-11.793 28.418-7.5352 7.5391-17.758 11.777-28.418 11.789zm0-62.496c-5.9102 0-11.578 2.3516-15.758 6.5312-4.1797 4.1797-6.5273 9.8477-6.5273 15.758s2.3477 11.582 6.5273 15.762c4.1797 4.1797 9.8477 6.5273 15.758 6.5273 5.9141 0 11.582-2.3477 15.762-6.5273 4.1797-4.1797 6.5273-9.8516 6.5273-15.762 0-5.9141-2.3477-11.582-6.5273-15.766-4.1797-4.1836-9.8477-6.5352-15.762-6.543z"/>

 </g>
</svg>
